<?xml version="1.0" encoding="utf-8"?>
<!-- Generator: Adobe Illustrator 25.0.1, SVG Export Plug-In . SVG Version: 6.00 Build 0)  -->
<svg version="1.1" id="icons" xmlns="http://www.w3.org/2000/svg" xmlns:xlink="http://www.w3.org/1999/xlink" x="0px" y="0px"
	 viewBox="0 0 49.8 38" style="enable-background:new 0 0 49.8 38;" xml:space="preserve">
<style type="text/css">
	.st0{fill:none;stroke:#50BC93;stroke-width:4;stroke-linecap:round;stroke-linejoin:round;stroke-miterlimit:10;}
	.st1{fill:none;stroke:#50BC93;stroke-width:4;stroke-linecap:round;stroke-miterlimit:10;}
	.st2{fill-rule:evenodd;clip-rule:evenodd;fill:#50BC93;stroke:#50BC93;stroke-miterlimit:10;}
	.st3{fill:none;stroke:#50BC93;stroke-width:4;stroke-miterlimit:10;}
	.st4{fill:none;stroke:#50BC93;stroke-width:4;stroke-linecap:round;stroke-linejoin:bevel;stroke-miterlimit:10;}
	.st5{fill:none;stroke:#50BC93;stroke-width:4.1039;stroke-miterlimit:10;}
	.st6{fill:#50BC93;}
	.st7{fill:none;stroke:#50BC93;stroke-width:3.92;stroke-linecap:round;stroke-miterlimit:10;}
	.st8{fill:none;stroke:#50BC93;stroke-width:3.6522;stroke-miterlimit:10;}
	.st9{fill:none;stroke:#50BC93;stroke-width:3.6522;stroke-linecap:round;stroke-miterlimit:10;}
	.st10{fill-rule:evenodd;clip-rule:evenodd;fill:none;stroke:#50BC93;stroke-width:4;stroke-linecap:round;stroke-miterlimit:10;}
	.st11{fill:none;stroke:#50BC93;stroke-width:4;stroke-linejoin:round;stroke-miterlimit:10;}
	.st12{fill:#FFFFFF;}
</style>
<g id="Icon_71_">
	<g>
		<path class="st12" d="M47.8,21.1c-0.5,0-1-0.2-1.4-0.6L29.7,3.4c-0.8-0.8-0.7-2.1,0-2.8c0.8-0.8,2.1-0.7,2.8,0l16.6,17.1
			c0.8,0.8,0.7,2.1,0,2.8C48.8,21,48.3,21.1,47.8,21.1z"/>
	</g>
	<g>
		<path class="st12" d="M47,21H2c-1.1,0-2-0.9-2-2s0.9-2,2-2h45c1.1,0,2,0.9,2,2S48.1,21,47,21z"/>
	</g>
	<g>
		<path class="st12" d="M31.2,38c-0.5,0-1-0.2-1.4-0.6c-0.8-0.8-0.8-2,0-2.8l16.5-16.9c0.8-0.8,2-0.8,2.8,0c0.8,0.8,0.8,2,0,2.8
			L32.6,37.4C32.2,37.8,31.7,38,31.2,38z"/>
	</g>
</g>
</svg>
