<?xml version="1.0" encoding="utf-8"?>
<!-- Generator: Adobe Illustrator 25.0.1, SVG Export Plug-In . SVG Version: 6.00 Build 0)  -->
<svg version="1.1" id="icons" xmlns="http://www.w3.org/2000/svg" xmlns:xlink="http://www.w3.org/1999/xlink" x="0px" y="0px"
	 viewBox="0 0 40 46" style="enable-background:new 0 0 40 46;" xml:space="preserve">
<style type="text/css">
	.st0{fill:none;stroke:#50BC93;stroke-width:4;stroke-linecap:round;stroke-linejoin:round;stroke-miterlimit:10;}
	.st1{fill:none;stroke:#50BC93;stroke-width:4;stroke-linecap:round;stroke-miterlimit:10;}
	.st2{fill-rule:evenodd;clip-rule:evenodd;fill:#50BC93;stroke:#50BC93;stroke-miterlimit:10;}
	.st3{fill:none;stroke:#50BC93;stroke-width:4;stroke-miterlimit:10;}
	.st4{fill:none;stroke:#50BC93;stroke-width:4;stroke-linecap:round;stroke-linejoin:bevel;stroke-miterlimit:10;}
	.st5{fill:none;stroke:#50BC93;stroke-width:4.1039;stroke-miterlimit:10;}
	.st6{fill:#50BC93;}
	.st7{fill:none;stroke:#50BC93;stroke-width:3.92;stroke-linecap:round;stroke-miterlimit:10;}
	.st8{fill:none;stroke:#50BC93;stroke-width:3.6522;stroke-miterlimit:10;}
	.st9{fill:none;stroke:#50BC93;stroke-width:3.6522;stroke-linecap:round;stroke-miterlimit:10;}
	.st10{fill-rule:evenodd;clip-rule:evenodd;fill:none;stroke:#50BC93;stroke-width:4;stroke-linecap:round;stroke-miterlimit:10;}
	.st11{fill:none;stroke:#50BC93;stroke-width:4;stroke-linejoin:round;stroke-miterlimit:10;}
	.st12{fill:#FFFFFF;}
</style>
<g id="Icon_6_">
	<g>
		<path class="st12" d="M13,46H2.9C1.3,46,0,44.8,0,43.3V18h4v24h9V46z"/>
	</g>
	<g>
		<path class="st12" d="M37.1,46H26v-4h10V19h4v24.3C40,44.8,38.7,46,37.1,46z"/>
	</g>
	<g>
		<path class="st12" d="M38,20.9c-0.5,0-1-0.2-1.4-0.5L20,4.7L3.3,19.9c-0.8,0.7-2.1,0.7-2.8-0.1s-0.7-2.1,0.1-2.8l18-16.4
			c0.8-0.7,2-0.7,2.7,0l18,16.9c0.8,0.8,0.8,2,0.1,2.8C39.1,20.7,38.5,20.9,38,20.9z"/>
	</g>
	<g>
		<path class="st12" d="M28,46h-4V33h-8v13h-4V31c0-1.1,0.9-2,2-2h12c1.1,0,2,0.9,2,2V46z"/>
	</g>
</g>
</svg>
